<mxfile host="app.diagrams.net" modified="2024-03-02T08:40:24.780Z" agent="Mozilla/5.0 (Windows NT 10.0; Win64; x64) AppleWebKit/537.36 (KHTML, like Gecko) Chrome/122.0.0.0 Safari/537.36" etag="mf4jpOj5604mLgB67g_U" version="24.0.0" type="github">
  <diagram name="Page-1" id="3kHtIoUZKBWZ_jtWRq0K">
    <mxGraphModel dx="2193" dy="710" grid="1" gridSize="10" guides="1" tooltips="1" connect="1" arrows="1" fold="1" page="1" pageScale="1" pageWidth="827" pageHeight="1169" math="0" shadow="0">
      <root>
        <mxCell id="0" />
        <mxCell id="1" parent="0" />
        <mxCell id="xaT1OQUmqO23OhHExjbj-22" value="" style="rounded=0;whiteSpace=wrap;html=1;" vertex="1" parent="1">
          <mxGeometry x="-40" width="800" height="990" as="geometry" />
        </mxCell>
        <mxCell id="xaT1OQUmqO23OhHExjbj-24" style="edgeStyle=orthogonalEdgeStyle;rounded=0;orthogonalLoop=1;jettySize=auto;html=1;entryX=0;entryY=0.5;entryDx=0;entryDy=0;" edge="1" parent="1" target="xaT1OQUmqO23OhHExjbj-34">
          <mxGeometry relative="1" as="geometry">
            <mxPoint x="148.29000000000042" y="344.9999999999999" as="sourcePoint" />
          </mxGeometry>
        </mxCell>
        <mxCell id="xaT1OQUmqO23OhHExjbj-25" style="edgeStyle=orthogonalEdgeStyle;rounded=0;orthogonalLoop=1;jettySize=auto;html=1;entryX=0;entryY=0.5;entryDx=0;entryDy=0;" edge="1" parent="1" target="xaT1OQUmqO23OhHExjbj-37">
          <mxGeometry relative="1" as="geometry">
            <mxPoint x="148.29000000000042" y="344.9999999999999" as="sourcePoint" />
          </mxGeometry>
        </mxCell>
        <mxCell id="xaT1OQUmqO23OhHExjbj-31" style="edgeStyle=orthogonalEdgeStyle;rounded=0;orthogonalLoop=1;jettySize=auto;html=1;exitX=0.5;exitY=1;exitDx=0;exitDy=0;entryX=0.5;entryY=0;entryDx=0;entryDy=0;" edge="1" parent="1" source="xaT1OQUmqO23OhHExjbj-32" target="xaT1OQUmqO23OhHExjbj-34">
          <mxGeometry relative="1" as="geometry" />
        </mxCell>
        <mxCell id="xaT1OQUmqO23OhHExjbj-32" value="«контекст на поръчките»&lt;br&gt;&lt;b&gt;Услуга за приемане на съобщения&lt;/b&gt;" style="html=1;dropTarget=0;whiteSpace=wrap;" vertex="1" parent="1">
          <mxGeometry x="285" y="56.25" width="195" height="95" as="geometry" />
        </mxCell>
        <mxCell id="xaT1OQUmqO23OhHExjbj-33" value="" style="shape=module;jettyWidth=8;jettyHeight=4;" vertex="1" parent="xaT1OQUmqO23OhHExjbj-32">
          <mxGeometry x="1" width="20" height="20" relative="1" as="geometry">
            <mxPoint x="-27" y="7" as="offset" />
          </mxGeometry>
        </mxCell>
        <mxCell id="xaT1OQUmqO23OhHExjbj-71" value="" style="edgeStyle=orthogonalEdgeStyle;rounded=0;orthogonalLoop=1;jettySize=auto;html=1;" edge="1" parent="1" source="xaT1OQUmqO23OhHExjbj-34" target="xaT1OQUmqO23OhHExjbj-40">
          <mxGeometry relative="1" as="geometry" />
        </mxCell>
        <mxCell id="xaT1OQUmqO23OhHExjbj-34" value="«контекст на поръчките»&lt;br&gt;&lt;b&gt;Услуга за приемане&lt;br&gt;на команди&lt;/b&gt;" style="html=1;dropTarget=0;whiteSpace=wrap;" vertex="1" parent="1">
          <mxGeometry x="285" y="220" width="195" height="100" as="geometry" />
        </mxCell>
        <mxCell id="xaT1OQUmqO23OhHExjbj-35" value="" style="shape=module;jettyWidth=8;jettyHeight=4;" vertex="1" parent="xaT1OQUmqO23OhHExjbj-34">
          <mxGeometry x="1" width="20" height="20" relative="1" as="geometry">
            <mxPoint x="-27" y="7" as="offset" />
          </mxGeometry>
        </mxCell>
        <mxCell id="xaT1OQUmqO23OhHExjbj-82" value="" style="edgeStyle=orthogonalEdgeStyle;rounded=0;orthogonalLoop=1;jettySize=auto;html=1;" edge="1" parent="1" source="xaT1OQUmqO23OhHExjbj-37" target="xaT1OQUmqO23OhHExjbj-41">
          <mxGeometry relative="1" as="geometry" />
        </mxCell>
        <mxCell id="xaT1OQUmqO23OhHExjbj-37" value="«контекст на поръчките»&lt;br&gt;&lt;b&gt;Услуга за извличане&lt;br&gt;на информация&lt;/b&gt;" style="html=1;dropTarget=0;whiteSpace=wrap;" vertex="1" parent="1">
          <mxGeometry x="285" y="355" width="195" height="100" as="geometry" />
        </mxCell>
        <mxCell id="xaT1OQUmqO23OhHExjbj-38" value="" style="shape=module;jettyWidth=8;jettyHeight=4;" vertex="1" parent="xaT1OQUmqO23OhHExjbj-37">
          <mxGeometry x="1" width="20" height="20" relative="1" as="geometry">
            <mxPoint x="-27" y="7" as="offset" />
          </mxGeometry>
        </mxCell>
        <mxCell id="xaT1OQUmqO23OhHExjbj-39" value="" style="edgeStyle=orthogonalEdgeStyle;rounded=0;orthogonalLoop=1;jettySize=auto;html=1;entryX=0.5;entryY=0;entryDx=0;entryDy=0;entryPerimeter=0;" edge="1" parent="1" source="xaT1OQUmqO23OhHExjbj-40" target="xaT1OQUmqO23OhHExjbj-41">
          <mxGeometry relative="1" as="geometry">
            <mxPoint x="705" y="340" as="targetPoint" />
          </mxGeometry>
        </mxCell>
        <mxCell id="xaT1OQUmqO23OhHExjbj-40" value="" style="shape=cylinder3;whiteSpace=wrap;html=1;boundedLbl=1;backgroundOutline=1;size=15;" vertex="1" parent="1">
          <mxGeometry x="560" y="230" width="60" height="80" as="geometry" />
        </mxCell>
        <mxCell id="xaT1OQUmqO23OhHExjbj-122" value="" style="edgeStyle=orthogonalEdgeStyle;rounded=0;orthogonalLoop=1;jettySize=auto;html=1;" edge="1" parent="1" source="xaT1OQUmqO23OhHExjbj-53" target="xaT1OQUmqO23OhHExjbj-99">
          <mxGeometry relative="1" as="geometry" />
        </mxCell>
        <mxCell id="xaT1OQUmqO23OhHExjbj-53" value="«контекст на доставките»&lt;br&gt;&lt;b&gt;Услуга за приемане на съобщения&lt;/b&gt;" style="html=1;dropTarget=0;whiteSpace=wrap;" vertex="1" parent="1">
          <mxGeometry x="287.5" y="850" width="190" height="100" as="geometry" />
        </mxCell>
        <mxCell id="xaT1OQUmqO23OhHExjbj-54" value="" style="shape=module;jettyWidth=8;jettyHeight=4;" vertex="1" parent="xaT1OQUmqO23OhHExjbj-53">
          <mxGeometry x="1" width="20" height="20" relative="1" as="geometry">
            <mxPoint x="-27" y="7" as="offset" />
          </mxGeometry>
        </mxCell>
        <mxCell id="xaT1OQUmqO23OhHExjbj-69" value="" style="edgeStyle=orthogonalEdgeStyle;rounded=0;orthogonalLoop=1;jettySize=auto;html=1;" edge="1" parent="1" source="xaT1OQUmqO23OhHExjbj-65" target="xaT1OQUmqO23OhHExjbj-32">
          <mxGeometry relative="1" as="geometry" />
        </mxCell>
        <mxCell id="xaT1OQUmqO23OhHExjbj-65" value="" style="html=1;dropTarget=0;whiteSpace=wrap;" vertex="1" parent="1">
          <mxGeometry x="80" y="40" width="130" height="127.5" as="geometry" />
        </mxCell>
        <mxCell id="xaT1OQUmqO23OhHExjbj-66" value="" style="shape=module;jettyWidth=8;jettyHeight=4;" vertex="1" parent="xaT1OQUmqO23OhHExjbj-65">
          <mxGeometry x="1" width="20" height="20" relative="1" as="geometry">
            <mxPoint x="-27" y="7" as="offset" />
          </mxGeometry>
        </mxCell>
        <mxCell id="xaT1OQUmqO23OhHExjbj-68" value="Вътрешни системи" style="text;html=1;strokeColor=none;fillColor=none;align=center;verticalAlign=middle;whiteSpace=wrap;rounded=0;" vertex="1" parent="1">
          <mxGeometry x="105" y="130" width="80" height="30" as="geometry" />
        </mxCell>
        <mxCell id="xaT1OQUmqO23OhHExjbj-70" value="" style="image;aspect=fixed;html=1;points=[];align=center;fontSize=12;image=img/lib/azure2/other/Azure_Center_for_SAP.svg;" vertex="1" parent="1">
          <mxGeometry x="111" y="50" width="68" height="68" as="geometry" />
        </mxCell>
        <mxCell id="xaT1OQUmqO23OhHExjbj-41" value="" style="shape=cylinder3;whiteSpace=wrap;html=1;boundedLbl=1;backgroundOutline=1;size=15;" vertex="1" parent="1">
          <mxGeometry x="560" y="365" width="60" height="80" as="geometry" />
        </mxCell>
        <mxCell id="xaT1OQUmqO23OhHExjbj-73" value="&lt;span style=&quot;color: rgb(77, 81, 86); font-family: arial, sans-serif; font-size: 14px; text-align: left; background-color: rgb(255, 255, 255);&quot;&gt;ТСР мрежов протокол&lt;/span&gt;" style="text;html=1;align=center;verticalAlign=middle;whiteSpace=wrap;rounded=0;" vertex="1" parent="1">
          <mxGeometry x="185" y="860" width="60" height="30" as="geometry" />
        </mxCell>
        <mxCell id="xaT1OQUmqO23OhHExjbj-74" value="&lt;span style=&quot;color: rgb(77, 81, 86); font-family: arial, sans-serif; font-size: 14px; text-align: left; background-color: rgb(255, 255, 255);&quot;&gt;SOAP протокол за обмен&lt;/span&gt;" style="text;html=1;align=center;verticalAlign=middle;whiteSpace=wrap;rounded=0;" vertex="1" parent="1">
          <mxGeometry x="220" y="56.25" width="60" height="30" as="geometry" />
        </mxCell>
        <mxCell id="xaT1OQUmqO23OhHExjbj-80" value="&amp;nbsp;база от данни за запис на информация за поръчки" style="text;html=1;align=center;verticalAlign=middle;whiteSpace=wrap;rounded=0;" vertex="1" parent="1">
          <mxGeometry x="545" y="180" width="90" height="30" as="geometry" />
        </mxCell>
        <mxCell id="xaT1OQUmqO23OhHExjbj-83" value="&amp;nbsp;база от данни за четене на информация за доставки" style="text;html=1;align=center;verticalAlign=middle;whiteSpace=wrap;rounded=0;" vertex="1" parent="1">
          <mxGeometry x="635" y="585" width="90" height="30" as="geometry" />
        </mxCell>
        <mxCell id="xaT1OQUmqO23OhHExjbj-84" style="edgeStyle=orthogonalEdgeStyle;rounded=0;orthogonalLoop=1;jettySize=auto;html=1;entryX=0.539;entryY=1.248;entryDx=0;entryDy=0;entryPerimeter=0;" edge="1" parent="1" source="xaT1OQUmqO23OhHExjbj-34" target="xaT1OQUmqO23OhHExjbj-68">
          <mxGeometry relative="1" as="geometry" />
        </mxCell>
        <mxCell id="xaT1OQUmqO23OhHExjbj-93" value="" style="edgeStyle=orthogonalEdgeStyle;rounded=0;orthogonalLoop=1;jettySize=auto;html=1;" edge="1" parent="1" source="xaT1OQUmqO23OhHExjbj-88" target="xaT1OQUmqO23OhHExjbj-90">
          <mxGeometry relative="1" as="geometry" />
        </mxCell>
        <mxCell id="xaT1OQUmqO23OhHExjbj-88" value="«контекст на доставките»&lt;br&gt;&lt;b&gt;Услуга за извличане&lt;br&gt;на информация&lt;/b&gt;" style="html=1;dropTarget=0;whiteSpace=wrap;" vertex="1" parent="1">
          <mxGeometry x="285" y="550" width="195" height="100" as="geometry" />
        </mxCell>
        <mxCell id="xaT1OQUmqO23OhHExjbj-89" value="" style="shape=module;jettyWidth=8;jettyHeight=4;" vertex="1" parent="xaT1OQUmqO23OhHExjbj-88">
          <mxGeometry x="1" width="20" height="20" relative="1" as="geometry">
            <mxPoint x="-27" y="7" as="offset" />
          </mxGeometry>
        </mxCell>
        <mxCell id="xaT1OQUmqO23OhHExjbj-90" value="" style="shape=cylinder3;whiteSpace=wrap;html=1;boundedLbl=1;backgroundOutline=1;size=15;" vertex="1" parent="1">
          <mxGeometry x="570" y="560" width="60" height="80" as="geometry" />
        </mxCell>
        <mxCell id="xaT1OQUmqO23OhHExjbj-92" value="&amp;nbsp;база от данни за четене на информация за поръчки" style="text;html=1;align=center;verticalAlign=middle;whiteSpace=wrap;rounded=0;" vertex="1" parent="1">
          <mxGeometry x="555" y="470" width="90" height="30" as="geometry" />
        </mxCell>
        <mxCell id="xaT1OQUmqO23OhHExjbj-94" value="" style="html=1;dropTarget=0;whiteSpace=wrap;" vertex="1" parent="1">
          <mxGeometry x="20" y="302.5" width="130" height="127.5" as="geometry" />
        </mxCell>
        <mxCell id="xaT1OQUmqO23OhHExjbj-95" value="" style="shape=module;jettyWidth=8;jettyHeight=4;" vertex="1" parent="xaT1OQUmqO23OhHExjbj-94">
          <mxGeometry x="1" width="20" height="20" relative="1" as="geometry">
            <mxPoint x="-27" y="7" as="offset" />
          </mxGeometry>
        </mxCell>
        <mxCell id="xaT1OQUmqO23OhHExjbj-96" value="" style="verticalLabelPosition=bottom;aspect=fixed;html=1;shape=mxgraph.salesforce.web;" vertex="1" parent="1">
          <mxGeometry x="53.35" y="330" width="63.29" height="50" as="geometry" />
        </mxCell>
        <mxCell id="xaT1OQUmqO23OhHExjbj-111" style="edgeStyle=orthogonalEdgeStyle;rounded=0;orthogonalLoop=1;jettySize=auto;html=1;entryX=0;entryY=0.5;entryDx=0;entryDy=0;exitX=1;exitY=1;exitDx=0;exitDy=0;" edge="1" parent="1" source="xaT1OQUmqO23OhHExjbj-97" target="xaT1OQUmqO23OhHExjbj-88">
          <mxGeometry relative="1" as="geometry" />
        </mxCell>
        <mxCell id="xaT1OQUmqO23OhHExjbj-97" value="Мобилни и уеб клиенти" style="text;html=1;strokeColor=none;fillColor=none;align=center;verticalAlign=middle;whiteSpace=wrap;rounded=0;" vertex="1" parent="1">
          <mxGeometry x="46.67999999999999" y="390" width="76.64" height="30" as="geometry" />
        </mxCell>
        <mxCell id="xaT1OQUmqO23OhHExjbj-98" style="edgeStyle=orthogonalEdgeStyle;rounded=0;orthogonalLoop=1;jettySize=auto;html=1;entryX=1.013;entryY=0.096;entryDx=0;entryDy=0;entryPerimeter=0;" edge="1" parent="1" source="xaT1OQUmqO23OhHExjbj-34" target="xaT1OQUmqO23OhHExjbj-94">
          <mxGeometry relative="1" as="geometry" />
        </mxCell>
        <mxCell id="xaT1OQUmqO23OhHExjbj-103" value="" style="edgeStyle=orthogonalEdgeStyle;rounded=0;orthogonalLoop=1;jettySize=auto;html=1;" edge="1" parent="1" source="xaT1OQUmqO23OhHExjbj-99" target="xaT1OQUmqO23OhHExjbj-101">
          <mxGeometry relative="1" as="geometry" />
        </mxCell>
        <mxCell id="xaT1OQUmqO23OhHExjbj-99" value="«контекст на доставките»&lt;br&gt;&lt;b&gt;Услуга за приемане&lt;br&gt;на команди&lt;/b&gt;" style="html=1;dropTarget=0;whiteSpace=wrap;" vertex="1" parent="1">
          <mxGeometry x="285" y="700" width="195" height="100" as="geometry" />
        </mxCell>
        <mxCell id="xaT1OQUmqO23OhHExjbj-100" value="" style="shape=module;jettyWidth=8;jettyHeight=4;" vertex="1" parent="xaT1OQUmqO23OhHExjbj-99">
          <mxGeometry x="1" width="20" height="20" relative="1" as="geometry">
            <mxPoint x="-27" y="7" as="offset" />
          </mxGeometry>
        </mxCell>
        <mxCell id="xaT1OQUmqO23OhHExjbj-104" value="" style="edgeStyle=orthogonalEdgeStyle;rounded=0;orthogonalLoop=1;jettySize=auto;html=1;" edge="1" parent="1" source="xaT1OQUmqO23OhHExjbj-101" target="xaT1OQUmqO23OhHExjbj-90">
          <mxGeometry relative="1" as="geometry" />
        </mxCell>
        <mxCell id="xaT1OQUmqO23OhHExjbj-101" value="" style="shape=cylinder3;whiteSpace=wrap;html=1;boundedLbl=1;backgroundOutline=1;size=15;" vertex="1" parent="1">
          <mxGeometry x="570" y="710" width="60" height="80" as="geometry" />
        </mxCell>
        <mxCell id="xaT1OQUmqO23OhHExjbj-102" value="&amp;nbsp;база от данни за запис на информация за доставки" style="text;html=1;align=center;verticalAlign=middle;whiteSpace=wrap;rounded=0;" vertex="1" parent="1">
          <mxGeometry x="635" y="740" width="90" height="30" as="geometry" />
        </mxCell>
        <mxCell id="xaT1OQUmqO23OhHExjbj-106" value="&lt;span style=&quot;color: rgb(77, 81, 86); font-family: arial, sans-serif; font-size: 14px; text-align: left; background-color: rgb(255, 255, 255);&quot;&gt;REST протокол за обмен&lt;/span&gt;" style="text;html=1;align=center;verticalAlign=middle;whiteSpace=wrap;rounded=0;" vertex="1" parent="1">
          <mxGeometry x="150" y="360" width="60" height="30" as="geometry" />
        </mxCell>
        <mxCell id="xaT1OQUmqO23OhHExjbj-107" value="&lt;span style=&quot;font-family: roboto, arial, &amp;quot;sans-serif&amp;quot;; font-size: 13px; background-color: rgb(255, 255, 255);&quot;&gt;протокол на опашка за съобщения&amp;nbsp;&lt;/span&gt;" style="text;html=1;align=center;verticalAlign=middle;whiteSpace=wrap;rounded=0;" vertex="1" parent="1">
          <mxGeometry x="390" y="167.5" width="60" height="30" as="geometry" />
        </mxCell>
        <mxCell id="xaT1OQUmqO23OhHExjbj-121" style="edgeStyle=orthogonalEdgeStyle;rounded=0;orthogonalLoop=1;jettySize=auto;html=1;" edge="1" parent="1" source="xaT1OQUmqO23OhHExjbj-108" target="xaT1OQUmqO23OhHExjbj-53">
          <mxGeometry relative="1" as="geometry" />
        </mxCell>
        <mxCell id="xaT1OQUmqO23OhHExjbj-108" value="" style="html=1;dropTarget=0;whiteSpace=wrap;" vertex="1" parent="1">
          <mxGeometry x="16" y="836.25" width="130" height="127.5" as="geometry" />
        </mxCell>
        <mxCell id="xaT1OQUmqO23OhHExjbj-109" value="" style="shape=module;jettyWidth=8;jettyHeight=4;" vertex="1" parent="xaT1OQUmqO23OhHExjbj-108">
          <mxGeometry x="1" width="20" height="20" relative="1" as="geometry">
            <mxPoint x="-27" y="7" as="offset" />
          </mxGeometry>
        </mxCell>
        <mxCell id="xaT1OQUmqO23OhHExjbj-116" value="" style="verticalLabelPosition=bottom;aspect=fixed;html=1;shape=mxgraph.salesforce.iot;" vertex="1" parent="1">
          <mxGeometry x="51" y="860" width="60" height="60" as="geometry" />
        </mxCell>
        <mxCell id="xaT1OQUmqO23OhHExjbj-117" value="IoT устройства" style="text;html=1;strokeColor=none;fillColor=none;align=center;verticalAlign=middle;whiteSpace=wrap;rounded=0;" vertex="1" parent="1">
          <mxGeometry x="47.64" y="920" width="69" height="30" as="geometry" />
        </mxCell>
      </root>
    </mxGraphModel>
  </diagram>
</mxfile>
